<svg width="64" height="64" viewBox="0 0 64 64" fill="none" xmlns="http://www.w3.org/2000/svg">
  <circle cx="32" cy="32" r="30" fill="#FFC0CB" stroke="#FF69B4" stroke-width="2"/>
  <path d="M16 26L12 16L24 20" fill="white" stroke="#333" stroke-width="2"/>
  <path d="M48 26L52 16L40 20" fill="white" stroke="#333" stroke-width="2"/>
  <ellipse cx="32" cy="36" rx="22" ry="16" fill="white" stroke="#333" stroke-width="2"/>
  <ellipse cx="24" cy="34" rx="2" ry="3" fill="#333"/>
  <ellipse cx="40" cy="34" rx="2" ry="3" fill="#333"/>
  <ellipse cx="32" cy="38" rx="3" ry="2" fill="#FFA500" stroke="#333" stroke-width="1"/>
  <line x1="14" y1="36" x2="6" y2="34" stroke="#333" stroke-width="1"/>
  <line x1="14" y1="40" x2="6" y2="40" stroke="#333" stroke-width="1"/>
  <line x1="50" y1="36" x2="58" y2="34" stroke="#333" stroke-width="1"/>
  <line x1="50" y1="40" x2="58" y2="40" stroke="#333" stroke-width="1"/>
  <path d="M42 16C45 12 50 12 52 16C54 20 50 24 46 22" fill="#FF0000" stroke="#333" stroke-width="2"/>
</svg>
